<?xml version="1.0"?>
<svg xmlns="http://www.w3.org/2000/svg" xmlns:xlink="http://www.w3.org/1999/xlink" xmlns:svgjs="http://svgjs.com/svgjs" version="1.1" width="512" height="512" x="0" y="0" viewBox="0 0 512 512" style="enable-background:new 0 0 512 512" xml:space="preserve" class=""><g><g xmlns="http://www.w3.org/2000/svg" id="J_2_"><path d="m421.03 0v315.75c0 120.376-43.211 194.086-165 196.2-1.79.03-3.6.05-5.43.05-175.74 0-158.26-177.87-159.63-182.24l118.65-13.7c2.78 12.38-8.14 84.49 44.17 84.49.76 0 1.51-.01 2.24-.02 32.702-.634 40.65-15.582 40.65-78.67v-321.86z" fill="#b4e3e3" data-original="#c68cff" style="" class=""/><path d="m421.03 0v315.75c0 120.376-43.211 194.086-165 196.2v-111.42c32.702-.634 40.65-15.582 40.65-78.67v-321.86z" fill="#91d1d1" data-original="#aa80ff" style="" class=""/></g></g></svg>
